# xmcd
#
# Track frame offsets: 
#        150
#        21931
#        38869
#        63175
#        81704
#        103687
#        113993
#        132419
#
# Disc length: 1992 seconds
#
# Revision: 0
# Processed by: cddbd v1.5.2PL0 Copyright (c) Steve Scherf et al.
# Submitted via: ExactAudioCopy v0.95a5
#
DISCID=6e07c608
DTITLE=Adam Coolish and Michja³ Kielak - 100% Cotton Blues
DYEAR=2005
DGENRE=Blues
TTITLE0=Hello Mr Blues
TTITLE1=She Was Alone
TTITLE2=Blues Is The King
TTITLE3=I'm Coolish
TTITLE4=Everyday
TTITLE5=Sue Sue Sue
TTITLE6=When I'm Sad
TTITLE7=Come To Me Baby
EXTD=
EXTT0=
EXTT1=
EXTT2=
EXTT3=
EXTT4=
EXTT5=
EXTT6=
EXTT7=
PLAYORDER=
